<?xml version="1.0" encoding="UTF-8"?>
<svg version="1.1" xmlns="http://www.w3.org/2000/svg" width="500" height="500">
<path d="M0 0 C165 0 330 0 500 0 C500 165 500 330 500 500 C335 500 170 500 0 500 C0 335 0 170 0 0 Z " fill="#FEFEFE" transform="translate(0,0)"/>
<path d="M0 0 C-1.6829101 5.68804811 -4.23274104 10.86760212 -6.8125 16.1875 C-7.72181009 18.08441693 -8.63066992 19.98154977 -9.5390625 21.87890625 C-10.864001 24.63828639 -12.19152943 27.39631858 -13.5234375 30.15234375 C-33.3985303 72.37024221 -40.58628828 120.8937666 -28.2578125 166.3203125 C-26.16336209 170.7824025 -23.20872176 172.48592918 -18.7578125 174.37890625 C-14.85438492 175.65066814 -10.9442315 176.86218452 -7 178 C-5.92363281 178.32484375 -4.84726562 178.6496875 -3.73828125 178.984375 C5.15122567 181.21464183 13.9353563 181.27847055 23.0625 181.3125 C24.31683838 181.31805908 25.57117676 181.32361816 26.86352539 181.3293457 C68.60008399 181.01007945 108.80912379 160.33453777 143.67578125 139.01953125 C146.86089841 137.08450707 150.06467549 135.20268908 153.3125 133.375 C154.17488281 132.88773438 155.03726562 132.40046875 155.92578125 131.8984375 C156.61027344 131.60195313 157.29476563 131.30546875 158 131 C158.66 131.33 159.32 131.66 160 132 C159.41992188 132.64066406 158.83984375 133.28132812 158.2421875 133.94140625 C153.00079345 139.73722137 153.00079345 139.73722137 147.9375 145.6875 C145.31824073 148.77066078 142.40551401 151.31401669 139.32421875 153.92578125 C136.48795623 156.45696679 133.84559237 159.16052385 131.1875 161.875 C125.77421122 167.35343777 120.09924188 172.28587627 114 177 C113.41234863 177.45874512 112.82469727 177.91749023 112.21923828 178.39013672 C85.44415556 199.22894244 57.13437442 213.7377304 22.5625 213.5 C21.77099548 213.49591125 20.97949097 213.49182251 20.16400146 213.48760986 C6.21036321 213.37109336 -6.56204823 211.92786898 -20 208 C-21.21224243 207.64723999 -21.21224243 207.64723999 -22.44897461 207.28735352 C-39.00035934 202.45429509 -55.50546375 197.43881467 -71.89428711 192.07861328 C-81.29940499 189.01136351 -90.49317061 186.06197503 -100.3125 184.625 C-101.69598633 184.39876953 -101.69598633 184.39876953 -103.10742188 184.16796875 C-112.06283227 182.73357984 -120.80118158 181.83266492 -129.875 181.875 C-130.69613281 181.87113281 -131.51726562 181.86726562 -132.36328125 181.86328125 C-145.12567062 181.88319137 -156.90785549 184.14827964 -169.3203125 187.00390625 C-170.52429688 187.27332031 -171.72828125 187.54273438 -172.96875 187.8203125 C-174.59973633 188.19567139 -174.59973633 188.19567139 -176.26367188 188.57861328 C-179 189 -179 189 -182 188 C-154.540375 169.76151066 -124.35019557 160.75198795 -92 156 C-91.97083496 155.13125244 -91.94166992 154.26250488 -91.91162109 153.36743164 C-91.20135197 134.31188998 -89.64764328 116.3474912 -84 98 C-83.73558105 97.13745605 -83.47116211 96.27491211 -83.19873047 95.38623047 C-77.94697487 78.80021387 -69.73690379 63.6812506 -59 50 C-58.44699219 49.24460938 -57.89398438 48.48921875 -57.32421875 47.7109375 C-48.11921945 35.50563909 -36.41122083 23.92333138 -24 15 C-23.34435059 14.52691406 -22.68870117 14.05382812 -22.01318359 13.56640625 C-3.16035682 0 -3.16035682 0 0 0 Z " fill="#363599" transform="translate(261,169)"/>
<path d="M0 0 C0.59361328 0.2676416 1.18722656 0.5352832 1.79882812 0.81103516 C34.74306581 15.77109796 60.65668149 42.27887208 74 76 C76.11283604 81.89231914 77.66338 87.88936707 79 94 C79.24556641 95.10939941 79.24556641 95.10939941 79.49609375 96.24121094 C84.48769741 120.01320771 84.06609733 145.04452058 76 168 C75.64832764 169.00691895 75.64832764 169.00691895 75.28955078 170.03417969 C73.22556257 175.76086982 70.8346233 181.23977797 67 186 C66.34 186 65.68 186 65 186 C64.67 186.99 64.34 187.98 64 189 C58.64823269 193.12683964 51.70031413 195.55980913 45.5625 198.3125 C44.35412476 198.8552356 44.35412476 198.8552356 43.12133789 199.40893555 C42.36071045 199.74449463 41.60008301 200.08005371 40.81640625 200.42578125 C40.13006104 200.72911377 39.44371582 201.03244629 38.73657227 201.3449707 C37 202 37 202 35 202 C36.34854906 198.35826606 38.0117486 195.22936808 40.0625 191.9375 C47.97950789 178.50007325 53.9912932 164.06016123 58 149 C58.31839844 147.90945313 58.63679687 146.81890625 58.96484375 145.6953125 C65.20037365 120.81066324 61.89845579 94.02906599 49.12988281 71.87451172 C33.13811368 45.34365532 6.65938016 20.74615056 -23.9453125 13.08203125 C-27.28628562 12.30790333 -30.62803473 11.62891238 -34 11 C-35.35351562 10.71576172 -35.35351562 10.71576172 -36.734375 10.42578125 C-53.84450107 8.19491553 -70.6211229 9.81854274 -87 15 C-87.73428223 15.22993652 -88.46856445 15.45987305 -89.22509766 15.69677734 C-103.94812715 20.44755165 -116.38586546 27.73945524 -128 38 C-128.98871094 38.83273438 -129.97742188 39.66546875 -130.99609375 40.5234375 C-149.89365868 56.73383076 -163.70269356 82.29095387 -166.75390625 107.078125 C-168.49798979 134.87272625 -165.59165463 159.85646954 -151.03125 184.13671875 C-150 186 -150 186 -150 188 C-152.1818892 188.70510428 -154.37085693 189.38832408 -156.5625 190.0625 C-157.78066406 190.44535156 -158.99882812 190.82820312 -160.25390625 191.22265625 C-164.36654871 192.07606172 -166.95653275 192.12764139 -171 191 C-175.18308346 187.72445333 -177.43956388 183.87445398 -179.5 179.0625 C-179.79406738 178.38372803 -180.08813477 177.70495605 -180.39111328 177.00561523 C-189.99825253 153.54152282 -191.71567079 125.76400832 -187 101 C-186.8146167 100.01604248 -186.8146167 100.01604248 -186.62548828 99.01220703 C-182.25911274 76.56639045 -172.46900413 58.27263498 -159 40 C-158.44828125 39.2059375 -157.8965625 38.411875 -157.328125 37.59375 C-156.88984375 37.0678125 -156.4515625 36.541875 -156 36 C-155.34 36 -154.68 36 -154 36 C-153.76925781 35.44570312 -153.53851563 34.89140625 -153.30078125 34.3203125 C-143.70311184 17.20014545 -120.52433932 5.36166945 -103.1875 -1.875 C-102.53104492 -2.14916748 -101.87458984 -2.42333496 -101.19824219 -2.70581055 C-91.53815122 -6.56625137 -81.81142448 -8.52983701 -71.5 -9.6875 C-69.92412109 -9.88182617 -69.92412109 -9.88182617 -68.31640625 -10.08007812 C-44.90615373 -12.81465027 -21.44730165 -9.95005412 0 0 Z " fill="#06AC4E" transform="translate(303,128)"/>
<path d="M0 0 C0.33 0 0.66 0 1 0 C1.01458252 1.11221924 1.02916504 2.22443848 1.04418945 3.37036133 C1.10325925 7.59590922 1.18045649 11.82098268 1.26245117 16.04614258 C1.29520018 17.85628416 1.32337769 19.66651567 1.34643555 21.47680664 C1.73556004 51.25724948 8.09292777 78.55713726 25.7253418 103.10546875 C29.23510832 108.03006336 31 111.92245216 31 118 C17.61245139 118.82809579 7.9155323 114.88679886 -2.1640625 106.1171875 C-13.53359894 95.25864146 -18.49279981 80.70099047 -19.16796875 65.125 C-19.43265622 41.55358442 -13.85487511 19.33723429 0 0 Z " fill="#07AD4E" transform="translate(258,222)"/>
<path d="M0 0 C0.3125 2.75 0.3125 2.75 0 6 C-2.4375 8.1875 -2.4375 8.1875 -5 10 C-5.33 10.99 -5.66 11.98 -6 13 C-10.0947238 15.17970088 -14.59521401 15.7605561 -19.125 16.5 C-20.63675831 16.75627717 -22.14847702 17.01278805 -23.66015625 17.26953125 C-24.39637207 17.39279785 -25.13258789 17.51606445 -25.89111328 17.64306641 C-28.7861728 18.13306143 -31.6744425 18.6579602 -34.5625 19.1875 C-35.43003906 19.34605469 -36.29757813 19.50460937 -37.19140625 19.66796875 C-37.78824219 19.77753906 -38.38507813 19.88710938 -39 20 C-35.96217301 16.64529386 -32.92613064 14.68623993 -28.9140625 12.6171875 C-28.33465912 12.31684601 -27.75525574 12.01650452 -27.15829468 11.70706177 C-25.93812753 11.07663147 -24.71604947 10.44988733 -23.4921875 9.82666016 C-21.63320055 8.87917962 -19.78113973 7.91913747 -17.9296875 6.95703125 C-4.4207237 0 -4.4207237 0 0 0 Z " fill="#3A3999" transform="translate(118,338)"/>
<path d="M0 0 C-1.64566523 5.68502535 -4.29032784 10.76681636 -7 16 C-7.33 15.01 -7.66 14.02 -8 13 C-8.99 13.33 -9.98 13.66 -11 14 C-13.44839624 13.16396226 -15.68860855 12.15569573 -18 11 C-16.27278316 9.72651788 -14.54313762 8.45632943 -12.8125 7.1875 C-11.84957031 6.47980469 -10.88664063 5.77210938 -9.89453125 5.04296875 C-2.74952199 0 -2.74952199 0 0 0 Z " fill="#3F3E99" transform="translate(261,169)"/>
<path d="M0 0 C0.33 0 0.66 0 1 0 C1 13.2 1 26.4 1 40 C0.67 40 0.34 40 0 40 C-0.33 31.75 -0.66 23.5 -1 15 C-2.32 14.34 -3.64 13.68 -5 13 C-5.45375 13.969375 -5.9075 14.93875 -6.375 15.9375 C-8 19 -8 19 -10 20 C-7.90146926 12.46997792 -4.6107505 6.3250039 0 0 Z " fill="#4CBE81" transform="translate(258,222)"/>
<path d="M0 0 C0.66 0.33 1.32 0.66 2 1 C0.56665422 2.62866544 -0.87182979 4.25280994 -2.3125 5.875 C-3.11300781 6.77992188 -3.91351563 7.68484375 -4.73828125 8.6171875 C-7 11 -7 11 -10 13 C-10.66 12.34 -11.32 11.68 -12 11 C-11.67 10.01 -11.34 9.02 -11 8 C-11.66 7.67 -12.32 7.34 -13 7 C-10.88002166 5.80266012 -8.75486324 4.61701287 -6.625 3.4375 C-6.02171875 3.09525391 -5.4184375 2.75300781 -4.796875 2.40039062 C-3.23021759 1.53872905 -1.61709138 0.76281817 0 0 Z " fill="#3B3997" transform="translate(419,300)"/>
<path d="M0 0 C0.33 0.66 0.66 1.32 1 2 C4.62885324 2.15149298 4.62885324 2.15149298 8 1 C10.3400417 1.28241883 12.67504723 1.61250787 15 2 C15 2.33 15 2.66 15 3 C13.90042969 3.19335938 12.80085938 3.38671875 11.66796875 3.5859375 C3.44103793 5.03424243 -4.78381802 6.49162966 -13 8 C-9.81692689 4.43495812 -5.03655764 0 0 0 Z " fill="#4E4D9A" transform="translate(92,350)"/>
<path d="M0 0 C2 3.75 2 3.75 2 6 C1.34 6 0.68 6 0 6 C0.01160156 6.80824219 0.02320312 7.61648437 0.03515625 8.44921875 C0.04869141 10.05216797 0.04869141 10.05216797 0.0625 11.6875 C0.07410156 12.74324219 0.08570312 13.79898438 0.09765625 14.88671875 C0 18 0 18 -0.46875 20.28125 C-1.27903542 24.42800482 -1.37077997 28.5978022 -1.5625 32.8125 C-1.60568359 33.69615234 -1.64886719 34.57980469 -1.69335938 35.49023438 C-1.79891536 37.65999623 -1.89991071 39.8299791 -2 42 C-2.33 42 -2.66 42 -3 42 C-3.49249116 12.93165645 -3.49249116 12.93165645 0 0 Z " fill="#4CB97C" transform="translate(117,225)"/>
<path d="M0 0 C0.33 0 0.66 0 1 0 C3.08777194 28.82445611 3.08777194 28.82445611 -1 37 C-1.66 37 -2.32 37 -3 37 C-2 30 -2 30 -1.5 27 C-0.74538516 21.71769613 -0.63917217 16.38862895 -0.4375 11.0625 C-0.39431641 9.99708984 -0.35113281 8.93167969 -0.30664062 7.83398438 C-0.20125511 5.22276557 -0.09912912 2.61146254 0 0 Z " fill="#4EB87F" transform="translate(365,239)"/>
<path d="M0 0 C-1.31061591 4.23429756 -2.94356259 8.07407404 -5 12 C-5.99 11.67 -6.98 11.34 -8 11 C-8.33 10.01 -8.66 9.02 -9 8 C-7.35 7.67 -5.7 7.34 -4 7 C-5.84188612 4.94729537 -5.84188612 4.94729537 -8 4 C-2.25 0 -2.25 0 0 0 Z " fill="#59579D" transform="translate(261,169)"/>
<path d="M0 0 C1 2 1 2 0.0625 5.5 C-1.00202687 7.91527087 -1.55374544 8.79707716 -3.984375 9.90234375 C-6.1875 10.4375 -6.1875 10.4375 -10 11 C-6.79239749 7.19364503 -3.59253891 3.45436433 0 0 Z " fill="#1AAD5D" transform="translate(161,150)"/>
<path d="M0 0 C0.33 0 0.66 0 1 0 C0.91227545 1.89666526 0.80408699 3.79238993 0.6875 5.6875 C0.62949219 6.74324219 0.57148438 7.79898437 0.51171875 8.88671875 C-0.04285672 12.26073899 -1.1285588 14.17600004 -3 17 C-3.33 17.99 -3.66 18.98 -4 20 C-4.66 20 -5.32 20 -6 20 C-4 13.33333333 -2 6.66666667 0 0 Z " fill="#34B16D" transform="translate(361,277)"/>
<path d="M0 0 C0.33 1.32 0.66 2.64 1 4 C0.34 4 -0.32 4 -1 4 C-0.67 4.99 -0.34 5.98 0 7 C-0.4375 9.1875 -0.4375 9.1875 -1 11 C-1.66 10.67 -2.32 10.34 -3 10 C-3 10.66 -3 11.32 -3 12 C-3.66 12 -4.32 12 -5 12 C-5 12.66 -5 13.32 -5 14 C-5.66 13.67 -6.32 13.34 -7 13 C-3.535 6.565 -3.535 6.565 0 0 Z " fill="#2CB26A" transform="translate(350,307)"/>
<path d="M0 0 C0.66 0.33 1.32 0.66 2 1 C0.02 3.31 -1.96 5.62 -4 8 C-4.66 7.67 -5.32 7.34 -6 7 C-6 6.34 -6 5.68 -6 5 C-6.66 4.67 -7.32 4.34 -8 4 C-6.71349294 3.30289269 -5.42059335 2.61757124 -4.125 1.9375 C-3.40570313 1.55464844 -2.68640625 1.17179687 -1.9453125 0.77734375 C-1.30335938 0.52082031 -0.66140625 0.26429688 0 0 Z " fill="#4D4D97" transform="translate(419,300)"/>
<path d="M0 0 C0 1.65 0 3.3 0 5 C-0.33 4.34 -0.66 3.68 -1 3 C-1.70125 3.474375 -2.4025 3.94875 -3.125 4.4375 C-6.16081337 6.08739857 -8.59168786 6.60368464 -12 7 C-3.55172414 0 -3.55172414 0 0 0 Z " fill="#47479A" transform="translate(406,308)"/>
<path d="M0 0 C0.66 0.99 1.32 1.98 2 3 C0.02 3.99 0.02 3.99 -2 5 C-2 5.99 -2 6.98 -2 8 C-4 9.6875 -4 9.6875 -6 11 C-6.66 10.67 -7.32 10.34 -8 10 C-5.36 6.7 -2.72 3.4 0 0 Z " fill="#4B4B98" transform="translate(209,210)"/>
<path d="M0 0 C1.32830615 3.98491845 0.23204404 5.40048548 -1.4375 9.1875 C-1.91058594 10.27417969 -2.38367188 11.36085938 -2.87109375 12.48046875 C-3.42990234 13.72763672 -3.42990234 13.72763672 -4 15 C-4.66 13.68 -5.32 12.36 -6 11 C-5.34 10.67 -4.68 10.34 -4 10 C-2.86897474 7.65961814 -2.86897474 7.65961814 -1.875 4.9375 C-1.52179688 4.01839844 -1.16859375 3.09929687 -0.8046875 2.15234375 C-0.40636719 1.08693359 -0.40636719 1.08693359 0 0 Z " fill="#1DAA5F" transform="translate(378,293)"/>
<path d="M0 0 C6.75 0.75 6.75 0.75 9 3 C6.69 3.66 4.38 4.32 2 5 C1.34 3.35 0.68 1.7 0 0 Z " fill="#21B062" transform="translate(284,122)"/>
<path d="M0 0 C2 3 2 3 2 5 C2.66 5.33 3.32 5.66 4 6 C3.401875 6.103125 2.80375 6.20625 2.1875 6.3125 C-0.40434372 6.94177772 -0.40434372 6.94177772 -3 10 C-2.01 6.7 -1.02 3.4 0 0 Z " fill="#2CB268" transform="translate(354,297)"/>
<path d="M0 0 C3 3.75 3 3.75 3 6 C2.34 6 1.68 6 1 6 C1 6.66 1 7.32 1 8 C0.01 8 -0.98 8 -2 8 C-1.34 5.36 -0.68 2.72 0 0 Z " fill="#4B4C9F" transform="translate(178,264)"/>
<path d="M0 0 C0.79921875 0.01804688 1.5984375 0.03609375 2.421875 0.0546875 C3.02515625 0.07789063 3.6284375 0.10109375 4.25 0.125 C1.36371599 1.70054035 -1.28342384 2.58776373 -4.5 3.25 C-5.69882813 3.50136719 -5.69882813 3.50136719 -6.921875 3.7578125 C-7.52515625 3.87898437 -8.1284375 4.00015625 -8.75 4.125 C-8.75 3.465 -8.75 2.805 -8.75 2.125 C-5.68753253 0.34090198 -3.52920727 -0.10380021 0 0 Z " fill="#26AC64" transform="translate(223.75,138.875)"/>
<path d="M0 0 C1.65 0 3.3 0 5 0 C5.33 0.99 5.66 1.98 6 3 C8.00016466 4.20882096 8.00016466 4.20882096 10 5 C9.01 5.33 8.02 5.66 7 6 C1.36619718 2.73239437 1.36619718 2.73239437 0 0 Z " fill="#23AD61" transform="translate(257,328)"/>
<path d="M0 0 C1.875 0.25 1.875 0.25 4 1 C5.38495802 3.14668494 6 4.43871412 6 7 C5.34 7 4.68 7 4 7 C2.02 3.535 2.02 3.535 0 0 Z " fill="#1AAE5C" transform="translate(345,188)"/>
<path d="M0 0 C4.875 4.625 4.875 4.625 6 8 C4.68 8 3.36 8 2 8 C2 6.68 2 5.36 2 4 C1.34 4 0.68 4 0 4 C0 2.68 0 1.36 0 0 Z " fill="#29B067" transform="translate(353,165)"/>
<path d="M0 0 C0.66 0 1.32 0 2 0 C1.5251065 4.11574371 0.9789756 7.36383344 -1 11 C-1.02688151 9.35425434 -1.04634123 7.70838587 -1.0625 6.0625 C-1.07410156 5.14597656 -1.08570313 4.22945313 -1.09765625 3.28515625 C-1 1 -1 1 0 0 Z " fill="#17A85A" transform="translate(380,282)"/>
<path d="M0 0 C0.33 0 0.66 0 1 0 C1.125 7.75 1.125 7.75 0 10 C-0.66 10 -1.32 10 -2 10 C-1.54177532 6.53058454 -1.10868317 3.32604951 0 0 Z " fill="#32B069" transform="translate(364,266)"/>
<path d="M0 0 C0.66 0.33 1.32 0.66 2 1 C1.67 2.65 1.34 4.3 1 6 C-0.65 5.67 -2.3 5.34 -4 5 C-2.68 3.35 -1.36 1.7 0 0 Z " fill="#464592" transform="translate(227,192)"/>
<path d="M0 0 C0.66 0.33 1.32 0.66 2 1 C0.68 2.32 -0.64 3.64 -2 5 C-1.34 5.33 -0.68 5.66 0 6 C-2.86724686 5.42655063 -3.8614515 5.1385485 -6 3 C-4.03533587 1.93224776 -2.03144641 0.93446535 0 0 Z " fill="#464897" transform="translate(368,328)"/>
<path d="M0 0 C-1.32 1.32 -2.64 2.64 -4 4 C-4.99 3.67 -5.98 3.34 -7 3 C-6.67 2.01 -6.34 1.02 -6 0 C-3.42525708 -0.99667468 -2.51072708 -1.25536354 0 0 Z " fill="#43439D" transform="translate(408,315)"/>
<path d="M0 0 C0.33 0 0.66 0 1 0 C1 2.31 1 4.62 1 7 C-0.32 6.67 -1.64 6.34 -3 6 C-1.125 1.125 -1.125 1.125 0 0 Z " fill="#26AC65" transform="translate(257,224)"/>
<path d="M0 0 C0.66 0.33 1.32 0.66 2 1 C0.68 3.64 -0.64 6.28 -2 9 C-2.33 9 -2.66 9 -3 9 C-2.67 6.69 -2.34 4.38 -2 2 C-1.34 2 -0.68 2 0 2 C0 1.34 0 0.68 0 0 Z " fill="#1AAC5C" transform="translate(149,193)"/>
</svg>
